<svg xmlns="http://www.w3.org/2000/svg" viewBox="0 0 64 64">
  <defs>
    <linearGradient id="a" x1="8" y1="8" x2="56" y2="56" gradientUnits="userSpaceOnUse">
      <stop stop-color="#4338ca"/>
      <stop offset="1" stop-color="#0ea5e9"/>
    </linearGradient>
  </defs>
  <rect width="64" height="64" rx="16" fill="url(#a)"/>
  <path fill="#fff" d="M21 19h7l3-4h7l3 4h4a7 7 0 0 1 7 7v17a7 7 0 0 1-7 7H19a7 7 0 0 1-7-7V26a7 7 0 0 1 7-7h2Zm11 8a10 10 0 1 0 0 20 10 10 0 0 0 0-20Zm0 5a5 5 0 1 1 0 10 5 5 0 0 1 0-10Z"/>
</svg>
